<?xml version="1.0" encoding="UTF-8" standalone="no"?>
<!DOCTYPE svg PUBLIC "-//W3C//DTD SVG 1.1//EN"
 "http://www.w3.org/Graphics/SVG/1.1/DTD/svg11.dtd">
<!-- Generated by graphviz version 2.40.1 (20161225.0304)
 -->
<!-- Title: berit Pages: 1 -->
<svg width="1486pt" height="1124pt"
 viewBox="0.00 0.00 1486.00 1124.00" xmlns="http://www.w3.org/2000/svg" xmlns:xlink="http://www.w3.org/1999/xlink">
<g id="graph0" class="graph" transform="scale(1 1) rotate(0) translate(4 1120)">
<title>berit</title>
<polygon fill="#ffffff" stroke="transparent" points="-4,4 -4,-1120 1482,-1120 1482,4 -4,4"/>
<!-- T -->
<g id="node1" class="node">
<title>T</title>
<ellipse fill="none" stroke="#000000" cx="401" cy="-954" rx="27" ry="18"/>
<text text-anchor="middle" x="401" y="-950.3" font-family="Times,serif" font-size="14.00" fill="#000000">T</text>
</g>
<!-- P -->
<g id="node2" class="node">
<title>P</title>
<ellipse fill="none" stroke="#000000" cx="680" cy="-666" rx="27" ry="18"/>
<text text-anchor="middle" x="680" y="-662.3" font-family="Times,serif" font-size="14.00" fill="#000000">P</text>
</g>
<!-- T&#45;&gt;P -->
<g id="edge1" class="edge">
<title>T&#45;&gt;P</title>
<path fill="none" stroke="#000000" d="M417.6772,-928.9501C446.0679,-886.4481 501.8123,-803.6615 513,-792 559.7676,-743.2517 626.7342,-698.8263 659.8598,-678.1759"/>
<polygon fill="#000000" stroke="#000000" points="414.6993,-927.1072 412.06,-937.3681 420.522,-930.9927 414.6993,-927.1072"/>
</g>
<!-- Q -->
<g id="node3" class="node">
<title>Q</title>
<ellipse fill="none" stroke="#000000" cx="401" cy="-882" rx="27" ry="18"/>
<text text-anchor="middle" x="401" y="-878.3" font-family="Times,serif" font-size="14.00" fill="#000000">Q</text>
</g>
<!-- T&#45;&gt;Q -->
<g id="edge93" class="edge">
<title>T&#45;&gt;Q</title>
<path fill="none" stroke="#000000" d="M401,-925.5726C401,-917.1084 401,-908.0593 401,-900.4133"/>
<polygon fill="#000000" stroke="#000000" points="397.5001,-925.8313 401,-935.8314 404.5001,-925.8314 397.5001,-925.8313"/>
</g>
<!-- C -->
<g id="node15" class="node">
<title>C</title>
<ellipse fill="none" stroke="#000000" cx="549" cy="-810" rx="27" ry="18"/>
<text text-anchor="middle" x="549" y="-806.3" font-family="Times,serif" font-size="14.00" fill="#000000">C</text>
</g>
<!-- T&#45;&gt;C -->
<g id="edge44" class="edge">
<title>T&#45;&gt;C</title>
<path fill="none" stroke="#000000" d="M435.7459,-943.2867C458.7231,-934.7049 488.1576,-920.6507 508,-900 527.7478,-879.4478 539.1245,-847.7068 544.683,-827.9291"/>
<polygon fill="#000000" stroke="#000000" points="434.2732,-940.0955 426.0214,-946.7407 436.6162,-946.6918 434.2732,-940.0955"/>
</g>
<!-- X -->
<g id="node24" class="node">
<title>X</title>
<ellipse fill="none" stroke="#000000" cx="397" cy="-594" rx="27" ry="18"/>
<text text-anchor="middle" x="397" y="-590.3" font-family="Times,serif" font-size="14.00" fill="#000000">X</text>
</g>
<!-- T&#45;&gt;X -->
<g id="edge56" class="edge">
<title>T&#45;&gt;X</title>
<path fill="none" stroke="#000000" d="M380.1152,-931.0631C345.0077,-889.6194 280.3904,-799.2 306,-720 320.8606,-674.0424 359.4301,-630.7513 381.2876,-608.8668"/>
<polygon fill="#000000" stroke="#000000" points="377.5173,-933.4097 386.7078,-938.6809 382.8105,-928.829 377.5173,-933.4097"/>
</g>
<!-- Y -->
<g id="node25" class="node">
<title>Y</title>
<ellipse fill="none" stroke="#000000" cx="815" cy="-522" rx="27" ry="18"/>
<text text-anchor="middle" x="815" y="-518.3" font-family="Times,serif" font-size="14.00" fill="#000000">Y</text>
</g>
<!-- T&#45;&gt;Y -->
<g id="edge34" class="edge">
<title>T&#45;&gt;Y</title>
<path fill="none" stroke="#000000" d="M366.6657,-942.9379C316.2222,-924.2809 228,-881.4393 228,-810 228,-810 228,-810 228,-666 228,-549.1327 672.42,-526.6189 787.865,-522.7421"/>
<polygon fill="#000000" stroke="#000000" points="365.6187,-946.2804 376.2133,-946.3481 367.9733,-939.6883 365.6187,-946.2804"/>
</g>
<!-- W -->
<g id="node4" class="node">
<title>W</title>
<ellipse fill="none" stroke="#000000" cx="511" cy="-234" rx="27" ry="18"/>
<text text-anchor="middle" x="511" y="-230.3" font-family="Times,serif" font-size="14.00" fill="#000000">W</text>
</g>
<!-- P&#45;&gt;W -->
<g id="edge91" class="edge">
<title>P&#45;&gt;W</title>
<path fill="none" stroke="#000000" d="M643.558,-659.6948C614.705,-652.823 575.4779,-638.9808 552,-612 524.8249,-580.7704 528,-563.3978 528,-522 528,-522 528,-522 528,-378 528,-332.4358 519.5018,-279.3176 514.5224,-252.1045"/>
<polygon fill="#000000" stroke="#000000" points="643.1515,-663.1891 653.6704,-661.9226 644.6576,-656.353 643.1515,-663.1891"/>
</g>
<!-- E -->
<g id="node8" class="node">
<title>E</title>
<ellipse fill="none" stroke="#000000" cx="889" cy="-450" rx="27" ry="18"/>
<text text-anchor="middle" x="889" y="-446.3" font-family="Times,serif" font-size="14.00" fill="#000000">E</text>
</g>
<!-- P&#45;&gt;E -->
<g id="edge83" class="edge">
<title>P&#45;&gt;E</title>
<path fill="none" stroke="#000000" d="M690.6688,-638.6621C705.6467,-603.3956 735.9767,-542.0713 779,-504 804.332,-481.5837 840.6303,-466.1817 864.5006,-457.7282"/>
<polygon fill="#000000" stroke="#000000" points="687.2718,-637.7181 686.6847,-648.2967 693.7405,-640.3931 687.2718,-637.7181"/>
</g>
<!-- S -->
<g id="node12" class="node">
<title>S</title>
<ellipse fill="none" stroke="#000000" cx="775" cy="-90" rx="27" ry="18"/>
<text text-anchor="middle" x="775" y="-86.3" font-family="Times,serif" font-size="14.00" fill="#000000">S</text>
</g>
<!-- P&#45;&gt;S -->
<g id="edge72" class="edge">
<title>P&#45;&gt;S</title>
<path fill="none" stroke="#000000" d="M679.7954,-637.6598C679.9512,-619.8964 680.6744,-596.5511 683,-576 695.8298,-462.626 710.8001,-436.1108 732,-324 747.2343,-243.4369 764.6964,-147.1216 771.7722,-107.9193"/>
<polygon fill="#000000" stroke="#000000" points="676.2955,-637.6548 679.7618,-647.6665 683.2954,-637.6783 676.2955,-637.6548"/>
</g>
<!-- O -->
<g id="node20" class="node">
<title>O</title>
<ellipse fill="none" stroke="#000000" cx="728" cy="-18" rx="27" ry="18"/>
<text text-anchor="middle" x="728" y="-14.3" font-family="Times,serif" font-size="14.00" fill="#000000">O</text>
</g>
<!-- P&#45;&gt;O -->
<g id="edge87" class="edge">
<title>P&#45;&gt;O</title>
<path fill="none" stroke="#000000" d="M650.02,-649.2562C635.2566,-639.8346 618.0808,-626.9604 606,-612 578.4995,-577.9445 566,-565.7727 566,-522 566,-522 566,-522 566,-162 566,-88.9978 659.0333,-43.9433 704.0963,-26.4019"/>
<polygon fill="#000000" stroke="#000000" points="648.4796,-652.4173 658.8335,-654.6641 652.1406,-646.4509 648.4796,-652.4173"/>
</g>
<!-- D -->
<g id="node21" class="node">
<title>D</title>
<ellipse fill="none" stroke="#000000" cx="663" cy="-162" rx="27" ry="18"/>
<text text-anchor="middle" x="663" y="-158.3" font-family="Times,serif" font-size="14.00" fill="#000000">D</text>
</g>
<!-- P&#45;&gt;D -->
<g id="edge70" class="edge">
<title>P&#45;&gt;D</title>
<path fill="none" stroke="#000000" d="M655.1184,-645.2271C645.4102,-635.9568 634.9626,-624.3439 628,-612 607.6618,-575.9426 604,-563.3978 604,-522 604,-522 604,-522 604,-306 604,-256.5588 634.1491,-204.2189 651.3435,-178.389"/>
<polygon fill="#000000" stroke="#000000" points="652.9235,-647.9628 662.6649,-652.1288 657.6477,-642.7973 652.9235,-647.9628"/>
</g>
<!-- G -->
<g id="node23" class="node">
<title>G</title>
<ellipse fill="none" stroke="#000000" cx="925" cy="-306" rx="27" ry="18"/>
<text text-anchor="middle" x="925" y="-302.3" font-family="Times,serif" font-size="14.00" fill="#000000">G</text>
</g>
<!-- P&#45;&gt;G -->
<g id="edge17" class="edge">
<title>P&#45;&gt;G</title>
<path fill="none" stroke="#000000" d="M683.0328,-637.9466C685.6127,-619.8185 690.1856,-595.9711 698,-576 743.8575,-458.8032 862.3671,-355.7789 907.3383,-319.6932"/>
<polygon fill="#000000" stroke="#000000" points="679.5592,-637.5177 681.7346,-647.8868 686.5002,-638.4242 679.5592,-637.5177"/>
</g>
<!-- P&#45;&gt;X -->
<g id="edge58" class="edge">
<title>P&#45;&gt;X</title>
<path fill="none" stroke="#000000" d="M648.4531,-651.4256C645.2909,-650.1841 642.1027,-649.0166 639,-648 562.503,-622.9366 468.6359,-605.6757 423.5929,-598.1918"/>
<polygon fill="#000000" stroke="#000000" points="647.1726,-654.6837 657.7497,-655.2955 649.8627,-648.2212 647.1726,-654.6837"/>
</g>
<!-- P&#45;&gt;Y -->
<g id="edge28" class="edge">
<title>P&#45;&gt;Y</title>
<path fill="none" stroke="#000000" d="M702.1503,-643.2161C711.4211,-633.6237 722.2803,-622.3139 732,-612 756.3443,-586.1674 784.2478,-555.7385 800.707,-537.7032"/>
<polygon fill="#000000" stroke="#000000" points="699.5498,-640.8703 695.1079,-650.489 704.5786,-645.7397 699.5498,-640.8703"/>
</g>
<!-- Q&#45;&gt;W -->
<g id="edge2" class="edge">
<title>Q&#45;&gt;W</title>
<path fill="none" stroke="#000000" d="M379.7058,-859.1086C336.4874,-809.886 244.1804,-689.239 264,-576 289.0607,-432.8161 315.8247,-390.394 419,-288 438.9812,-268.1701 467.6683,-252.8511 487.6789,-243.6771"/>
<polygon fill="#000000" stroke="#000000" points="377.169,-861.5225 386.4396,-866.6516 382.391,-856.8608 377.169,-861.5225"/>
</g>
<!-- Q&#45;&gt;C -->
<g id="edge45" class="edge">
<title>Q&#45;&gt;C</title>
<path fill="none" stroke="#000000" d="M431.9478,-866.9443C460.4076,-853.099 501.8938,-832.9165 527.0725,-820.6674"/>
<polygon fill="#000000" stroke="#000000" points="430.2991,-863.8541 422.8379,-871.3762 433.3614,-870.1488 430.2991,-863.8541"/>
</g>
<!-- H -->
<g id="node16" class="node">
<title>H</title>
<ellipse fill="none" stroke="#000000" cx="452" cy="-666" rx="27" ry="18"/>
<text text-anchor="middle" x="452" y="-662.3" font-family="Times,serif" font-size="14.00" fill="#000000">H</text>
</g>
<!-- Q&#45;&gt;H -->
<g id="edge65" class="edge">
<title>Q&#45;&gt;H</title>
<path fill="none" stroke="#000000" d="M407.6185,-853.9686C418.271,-808.8523 438.9202,-721.3969 447.7875,-683.8413"/>
<polygon fill="#000000" stroke="#000000" points="404.1522,-853.4188 405.2605,-863.9555 410.9649,-855.0274 404.1522,-853.4188"/>
</g>
<!-- W&#45;&gt;S -->
<g id="edge85" class="edge">
<title>W&#45;&gt;S</title>
<path fill="none" stroke="#000000" d="M534.4014,-212.2804C556.7989,-192.3934 592.2284,-163.2155 627,-144 667.5768,-121.5764 719.3026,-105.1736 749.6253,-96.6489"/>
<polygon fill="#000000" stroke="#000000" points="531.8577,-209.8608 526.7646,-219.1511 536.5397,-215.0646 531.8577,-209.8608"/>
</g>
<!-- W&#45;&gt;O -->
<g id="edge23" class="edge">
<title>W&#45;&gt;O</title>
<path fill="none" stroke="#000000" d="M510.2195,-205.7615C510.8022,-169.9484 517.2957,-108.4778 552,-72 572.7084,-50.2333 657.9193,-31.3139 701.7265,-22.7987"/>
<polygon fill="#000000" stroke="#000000" points="506.7192,-205.9907 510.2037,-215.9961 513.7192,-206.0016 506.7192,-205.9907"/>
</g>
<!-- W&#45;&gt;D -->
<g id="edge98" class="edge">
<title>W&#45;&gt;D</title>
<path fill="none" stroke="#000000" d="M542.4972,-219.0803C571.8812,-205.1615 614.9681,-184.7519 640.8712,-172.4821"/>
<polygon fill="#000000" stroke="#000000" points="540.6412,-216.0866 533.1021,-223.5306 543.6378,-222.4127 540.6412,-216.0866"/>
</g>
<!-- N -->
<g id="node5" class="node">
<title>N</title>
<ellipse fill="none" stroke="#000000" cx="1041" cy="-1026" rx="27" ry="18"/>
<text text-anchor="middle" x="1041" y="-1022.3" font-family="Times,serif" font-size="14.00" fill="#000000">N</text>
</g>
<!-- A -->
<g id="node6" class="node">
<title>A</title>
<ellipse fill="none" stroke="#000000" cx="1119" cy="-810" rx="27" ry="18"/>
<text text-anchor="middle" x="1119" y="-806.3" font-family="Times,serif" font-size="14.00" fill="#000000">A</text>
</g>
<!-- N&#45;&gt;A -->
<g id="edge3" class="edge">
<title>N&#45;&gt;A</title>
<path fill="none" stroke="#000000" d="M1050.8793,-998.6418C1067.1305,-953.6386 1099.054,-865.2351 1112.6381,-827.6175"/>
<polygon fill="#000000" stroke="#000000" points="1047.4876,-997.7295 1047.3831,-1008.3238 1054.0715,-1000.107 1047.4876,-997.7295"/>
</g>
<!-- Z -->
<g id="node7" class="node">
<title>Z</title>
<ellipse fill="none" stroke="#000000" cx="1229" cy="-954" rx="27" ry="18"/>
<text text-anchor="middle" x="1229" y="-950.3" font-family="Times,serif" font-size="14.00" fill="#000000">Z</text>
</g>
<!-- N&#45;&gt;Z -->
<g id="edge49" class="edge">
<title>N&#45;&gt;Z</title>
<path fill="none" stroke="#000000" d="M1073.9455,-1013.3826C1111.6366,-998.9477 1172.4101,-975.6727 1205.5705,-962.973"/>
<polygon fill="#000000" stroke="#000000" points="1072.517,-1010.1817 1064.4302,-1017.0267 1075.0206,-1016.7187 1072.517,-1010.1817"/>
</g>
<!-- N&#45;&gt;E -->
<g id="edge73" class="edge">
<title>N&#45;&gt;E</title>
<path fill="none" stroke="#000000" d="M1007.2293,-1014.1177C987.5363,-1005.4553 963.9095,-991.7478 950,-972 931.2277,-945.3482 939.1255,-932.4491 936,-900 931.3979,-852.2211 929.5171,-839.5602 936,-792 940.4855,-759.0927 945.5238,-751.516 956,-720 972.2457,-671.1275 988.5038,-662.6188 998,-612 1000.9502,-596.2743 1003.5853,-590.9935 998,-576 979.8254,-527.2114 933.3209,-484.7393 907.3107,-463.8214"/>
<polygon fill="#000000" stroke="#000000" points="1005.9429,-1017.3732 1016.521,-1017.9693 1008.6234,-1010.9067 1005.9429,-1017.3732"/>
</g>
<!-- N&#45;&gt;C -->
<g id="edge88" class="edge">
<title>N&#45;&gt;C</title>
<path fill="none" stroke="#000000" d="M1003.8493,-1022.4952C930.3918,-1015.1222 769.4089,-996.6349 720,-972 648.0854,-936.1439 585.8218,-859.886 560.7638,-826.3749"/>
<polygon fill="#000000" stroke="#000000" points="1003.7326,-1026.0007 1014.0286,-1023.5018 1004.4215,-1019.0347 1003.7326,-1026.0007"/>
</g>
<!-- J -->
<g id="node17" class="node">
<title>J</title>
<ellipse fill="none" stroke="#000000" cx="986" cy="-954" rx="27" ry="18"/>
<text text-anchor="middle" x="986" y="-950.3" font-family="Times,serif" font-size="14.00" fill="#000000">J</text>
</g>
<!-- N&#45;&gt;J -->
<g id="edge50" class="edge">
<title>N&#45;&gt;J</title>
<path fill="none" stroke="#000000" d="M1022.2331,-1001.4324C1014.3745,-991.1448 1005.4542,-979.4673 998.431,-970.2733"/>
<polygon fill="#000000" stroke="#000000" points="1019.6679,-1003.84 1028.5196,-1009.6621 1025.2306,-999.5907 1019.6679,-1003.84"/>
</g>
<!-- I -->
<g id="node18" class="node">
<title>I</title>
<ellipse fill="none" stroke="#000000" cx="1005" cy="-882" rx="27" ry="18"/>
<text text-anchor="middle" x="1005" y="-878.3" font-family="Times,serif" font-size="14.00" fill="#000000">I</text>
</g>
<!-- N&#45;&gt;I -->
<g id="edge89" class="edge">
<title>N&#45;&gt;I</title>
<path fill="none" stroke="#000000" d="M1035.7982,-997.9136C1032.3159,-980.0781 1027.3939,-956.5636 1022,-936 1018.808,-923.8311 1014.558,-910.3311 1011.106,-899.8733"/>
<polygon fill="#000000" stroke="#000000" points="1032.4021,-998.7884 1037.7232,-1007.9501 1039.2768,-997.4697 1032.4021,-998.7884"/>
</g>
<!-- U -->
<g id="node26" class="node">
<title>U</title>
<ellipse fill="none" stroke="#000000" cx="1109" cy="-378" rx="27" ry="18"/>
<text text-anchor="middle" x="1109" y="-374.3" font-family="Times,serif" font-size="14.00" fill="#000000">U</text>
</g>
<!-- N&#45;&gt;U -->
<g id="edge62" class="edge">
<title>N&#45;&gt;U</title>
<path fill="none" stroke="#000000" d="M1076.8659,-1018.8593C1131.1129,-1007.8056 1231.2787,-986.3339 1265,-972 1319.8049,-948.7041 1342.8176,-948.0465 1378,-900 1402.4578,-866.5995 1402,-851.3978 1402,-810 1402,-810 1402,-810 1402,-666 1402,-515.1431 1202.0099,-416.9764 1132.4821,-387.4064"/>
<polygon fill="#000000" stroke="#000000" points="1076.0857,-1015.4462 1066.9797,-1020.862 1077.4755,-1022.3069 1076.0857,-1015.4462"/>
</g>
<!-- A&#45;&gt;S -->
<g id="edge59" class="edge">
<title>A&#45;&gt;S</title>
<path fill="none" stroke="#000000" d="M1144.6576,-789.6326C1170.8427,-767.045 1209.8588,-727.9436 1226,-684 1266.7629,-573.0249 1210.9142,-167.4908 1188,-144 1160.9232,-116.2419 889.2701,-97.089 801.9067,-91.6088"/>
<polygon fill="#000000" stroke="#000000" points="1142.3747,-786.9793 1136.9827,-796.0995 1146.8852,-792.3324 1142.3747,-786.9793"/>
</g>
<!-- B -->
<g id="node19" class="node">
<title>B</title>
<ellipse fill="none" stroke="#000000" cx="1117" cy="-738" rx="27" ry="18"/>
<text text-anchor="middle" x="1117" y="-734.3" font-family="Times,serif" font-size="14.00" fill="#000000">B</text>
</g>
<!-- A&#45;&gt;B -->
<g id="edge12" class="edge">
<title>A&#45;&gt;B</title>
<path fill="none" stroke="#000000" d="M1118.2103,-781.5726C1117.9752,-773.1084 1117.7239,-764.0593 1117.5115,-756.4133"/>
<polygon fill="#000000" stroke="#000000" points="1114.7189,-781.9324 1118.4953,-791.8314 1121.7162,-781.738 1114.7189,-781.9324"/>
</g>
<!-- K -->
<g id="node22" class="node">
<title>K</title>
<ellipse fill="none" stroke="#000000" cx="849" cy="-738" rx="27" ry="18"/>
<text text-anchor="middle" x="849" y="-734.3" font-family="Times,serif" font-size="14.00" fill="#000000">K</text>
</g>
<!-- A&#45;&gt;K -->
<g id="edge74" class="edge">
<title>A&#45;&gt;K</title>
<path fill="none" stroke="#000000" d="M1083.8879,-800.6368C1028.579,-785.8877 922.4955,-757.5988 874.1368,-744.7031"/>
<polygon fill="#000000" stroke="#000000" points="1083.0349,-804.0315 1093.5991,-803.2264 1084.8385,-797.2679 1083.0349,-804.0315"/>
</g>
<!-- Z&#45;&gt;E -->
<g id="edge4" class="edge">
<title>Z&#45;&gt;E</title>
<path fill="none" stroke="#000000" d="M1225.6848,-925.676C1218.3235,-869.9833 1197.3791,-743.3539 1150,-648 1113.6777,-574.8987 1102.1207,-551.8662 1036,-504 998.5605,-476.8968 946.0214,-461.9772 914.9469,-455.0117"/>
<polygon fill="#000000" stroke="#000000" points="1222.2437,-926.361 1226.9797,-935.8384 1229.1875,-925.4761 1222.2437,-926.361"/>
</g>
<!-- Z&#45;&gt;S -->
<g id="edge52" class="edge">
<title>Z&#45;&gt;S</title>
<path fill="none" stroke="#000000" d="M1248.2374,-929.5768C1276.5185,-891.1444 1326,-813.1621 1326,-738 1326,-738 1326,-738 1326,-522 1326,-346.0045 1343.0452,-256.8592 1208,-144 1176.7192,-117.8582 891.9197,-97.5007 802.0436,-91.682"/>
<polygon fill="#000000" stroke="#000000" points="1245.0904,-927.9386 1241.8809,-938.0356 1250.6865,-932.1439 1245.0904,-927.9386"/>
</g>
<!-- Z&#45;&gt;C -->
<g id="edge101" class="edge">
<title>Z&#45;&gt;C</title>
<path fill="none" stroke="#000000" d="M1193.1377,-946.6263C1142.9747,-936.2951 1049.0157,-916.8823 969,-900 819.7853,-868.5177 640.9513,-829.9019 575.0373,-815.6392"/>
<polygon fill="#000000" stroke="#000000" points="1192.6561,-950.1004 1203.1565,-948.6888 1194.0676,-943.2442 1192.6561,-950.1004"/>
</g>
<!-- Z&#45;&gt;I -->
<g id="edge95" class="edge">
<title>Z&#45;&gt;I</title>
<path fill="none" stroke="#000000" d="M1194.8626,-943.0273C1149.2142,-928.3546 1069.4071,-902.7023 1029.3683,-889.8327"/>
<polygon fill="#000000" stroke="#000000" points="1194.0103,-946.4296 1204.6017,-946.1577 1196.1524,-939.7654 1194.0103,-946.4296"/>
</g>
<!-- Z&#45;&gt;O -->
<g id="edge92" class="edge">
<title>Z&#45;&gt;O</title>
<path fill="none" stroke="#000000" d="M1254.7837,-933.9146C1293.9668,-902.378 1364,-841.5928 1364,-810 1364,-810 1364,-810 1364,-666 1364,-568.5257 1402,-547.4743 1402,-450 1402,-450 1402,-450 1402,-162 1402,-94.6194 880.1934,-34.329 754.8375,-20.8173"/>
<polygon fill="#000000" stroke="#000000" points="1252.5637,-931.2083 1246.927,-940.1792 1256.9278,-936.6814 1252.5637,-931.2083"/>
</g>
<!-- Z&#45;&gt;U -->
<g id="edge77" class="edge">
<title>Z&#45;&gt;U</title>
<path fill="none" stroke="#000000" d="M1233.7995,-925.7087C1243.5619,-861.8373 1261.9163,-702.1992 1226,-576 1204.7968,-501.4983 1148.539,-426.2059 1122.5327,-394.1059"/>
<polygon fill="#000000" stroke="#000000" points="1230.3076,-925.3835 1232.2037,-935.8072 1237.2218,-926.4762 1230.3076,-925.3835"/>
</g>
<!-- E&#45;&gt;W -->
<g id="edge79" class="edge">
<title>E&#45;&gt;W</title>
<path fill="none" stroke="#000000" d="M859.6324,-433.2185C786.0695,-391.1825 595.265,-282.1514 531.8418,-245.9096"/>
<polygon fill="#000000" stroke="#000000" points="857.9897,-436.3109 868.4086,-438.2335 861.4627,-430.2332 857.9897,-436.3109"/>
</g>
<!-- E&#45;&gt;S -->
<g id="edge84" class="edge">
<title>E&#45;&gt;S</title>
<path fill="none" stroke="#000000" d="M883.04,-421.7275C877.468,-392.7963 870,-346.4718 870,-306 870,-306 870,-306 870,-234 870,-178.2924 819.8502,-127.5183 792.4245,-103.9164"/>
<polygon fill="#000000" stroke="#000000" points="879.6823,-422.7889 885.0632,-431.9156 886.5483,-421.4254 879.6823,-422.7889"/>
</g>
<!-- E&#45;&gt;D -->
<g id="edge60" class="edge">
<title>E&#45;&gt;D</title>
<path fill="none" stroke="#000000" d="M869.8116,-425.5475C824.7839,-368.1671 713.3113,-226.1135 675.6579,-178.1304"/>
<polygon fill="#000000" stroke="#000000" points="867.2749,-427.9844 876.2017,-433.6907 872.7817,-423.663 867.2749,-427.9844"/>
</g>
<!-- E&#45;&gt;G -->
<g id="edge99" class="edge">
<title>E&#45;&gt;G</title>
<path fill="none" stroke="#000000" d="M895.9579,-422.1684C903.1851,-393.2595 914.2826,-348.8697 920.4568,-324.1727"/>
<polygon fill="#000000" stroke="#000000" points="892.5166,-421.5031 893.4866,-432.0535 899.3076,-423.2009 892.5166,-421.5031"/>
</g>
<!-- E&#45;&gt;U -->
<g id="edge20" class="edge">
<title>E&#45;&gt;U</title>
<path fill="none" stroke="#000000" d="M922.9292,-438.8959C967.6146,-424.2716 1045.1206,-398.906 1084.5064,-386.0161"/>
<polygon fill="#000000" stroke="#000000" points="921.7997,-435.5828 913.3844,-442.0196 923.9771,-442.2356 921.7997,-435.5828"/>
</g>
<!-- L -->
<g id="node9" class="node">
<title>L</title>
<ellipse fill="none" stroke="#000000" cx="855" cy="-1098" rx="27" ry="18"/>
<text text-anchor="middle" x="855" y="-1094.3" font-family="Times,serif" font-size="14.00" fill="#000000">L</text>
</g>
<!-- M -->
<g id="node10" class="node">
<title>M</title>
<ellipse fill="none" stroke="#000000" cx="342" cy="-738" rx="27" ry="18"/>
<text text-anchor="middle" x="342" y="-734.3" font-family="Times,serif" font-size="14.00" fill="#000000">M</text>
</g>
<!-- L&#45;&gt;M -->
<g id="edge5" class="edge">
<title>L&#45;&gt;M</title>
<path fill="none" stroke="#000000" d="M826.8443,-1080.2788C788.9839,-1056.3 719.7453,-1011.9211 662,-972 545.0945,-891.1796 408.5764,-788.4887 360.1531,-751.7979"/>
<polygon fill="#000000" stroke="#000000" points="825.0002,-1083.2537 835.3229,-1085.6397 828.7412,-1077.3372 825.0002,-1083.2537"/>
</g>
<!-- F -->
<g id="node13" class="node">
<title>F</title>
<ellipse fill="none" stroke="#000000" cx="1174" cy="-1026" rx="27" ry="18"/>
<text text-anchor="middle" x="1174" y="-1022.3" font-family="Times,serif" font-size="14.00" fill="#000000">F</text>
</g>
<!-- L&#45;&gt;F -->
<g id="edge54" class="edge">
<title>L&#45;&gt;F</title>
<path fill="none" stroke="#000000" d="M890.6213,-1089.9601C955.551,-1075.3051 1091.6784,-1044.5804 1148.3691,-1031.785"/>
<polygon fill="#000000" stroke="#000000" points="889.8189,-1086.5531 880.8349,-1092.1689 891.3601,-1093.3813 889.8189,-1086.5531"/>
</g>
<!-- M&#45;&gt;P -->
<g id="edge69" class="edge">
<title>M&#45;&gt;P</title>
<path fill="none" stroke="#000000" d="M377.8495,-730.3634C446.2768,-715.7872 594.0204,-684.3152 653.9505,-671.549"/>
<polygon fill="#000000" stroke="#000000" points="377.0124,-726.9631 367.9611,-732.4698 378.4708,-733.8095 377.0124,-726.9631"/>
</g>
<!-- M&#45;&gt;S -->
<g id="edge37" class="edge">
<title>M&#45;&gt;S</title>
<path fill="none" stroke="#000000" d="M316.6886,-717.3747C257.3014,-666.4892 114,-528.1461 114,-378 114,-378 114,-378 114,-234 114,-181.646 143.5814,-168.2127 190,-144 239.9632,-117.9383 639.6357,-96.63 747.9872,-91.2907"/>
<polygon fill="#000000" stroke="#000000" points="314.591,-720.1845 324.4878,-723.9666 319.1096,-714.8383 314.591,-720.1845"/>
</g>
<!-- M&#45;&gt;H -->
<g id="edge13" class="edge">
<title>M&#45;&gt;H</title>
<path fill="none" stroke="#000000" d="M369.9047,-719.7351C389.4292,-706.9554 415.0264,-690.2009 432.4115,-678.8216"/>
<polygon fill="#000000" stroke="#000000" points="367.8628,-716.8885 361.4126,-725.2936 371.6964,-722.7454 367.8628,-716.8885"/>
</g>
<!-- M&#45;&gt;D -->
<g id="edge100" class="edge">
<title>M&#45;&gt;D</title>
<path fill="none" stroke="#000000" d="M330.5585,-711.3788C319.3687,-682.8878 304,-636.0945 304,-594 304,-594 304,-594 304,-522 304,-380.1136 285.8751,-306.6836 395,-216 431.595,-185.5893 575.2605,-169.6901 635.8329,-164.2257"/>
<polygon fill="#000000" stroke="#000000" points="327.3162,-712.6971 334.3101,-720.6554 333.8056,-710.0726 327.3162,-712.6971"/>
</g>
<!-- R -->
<g id="node11" class="node">
<title>R</title>
<ellipse fill="none" stroke="#000000" cx="114" cy="-1026" rx="27" ry="18"/>
<text text-anchor="middle" x="114" y="-1022.3" font-family="Times,serif" font-size="14.00" fill="#000000">R</text>
</g>
<!-- R&#45;&gt;W -->
<g id="edge76" class="edge">
<title>R&#45;&gt;W</title>
<path fill="none" stroke="#000000" d="M114,-997.5823C114,-968.5369 114,-922.124 114,-882 114,-882 114,-882 114,-666 114,-460.5724 214.9397,-410.293 380,-288 412.7121,-263.7636 457.8789,-248.2952 485.7251,-240.3875"/>
<polygon fill="#000000" stroke="#000000" points="110.5001,-997.8146 114,-1007.8146 117.5001,-997.8147 110.5001,-997.8146"/>
</g>
<!-- R&#45;&gt;S -->
<g id="edge6" class="edge">
<title>R&#45;&gt;S</title>
<path fill="none" stroke="#000000" d="M92.7287,-1002.8844C70.2452,-975.9634 38,-929.1373 38,-882 38,-882 38,-882 38,-234 38,-176.7995 77.9821,-167.7916 130,-144 186.843,-118.0016 632.1134,-96.4038 747.6756,-91.1965"/>
<polygon fill="#000000" stroke="#000000" points="90.172,-1005.2793 99.3464,-1010.5784 95.479,-1000.7146 90.172,-1005.2793"/>
</g>
<!-- V -->
<g id="node14" class="node">
<title>V</title>
<ellipse fill="none" stroke="#000000" cx="756" cy="-954" rx="27" ry="18"/>
<text text-anchor="middle" x="756" y="-950.3" font-family="Times,serif" font-size="14.00" fill="#000000">V</text>
</g>
<!-- R&#45;&gt;V -->
<g id="edge67" class="edge">
<title>R&#45;&gt;V</title>
<path fill="none" stroke="#000000" d="M151.2092,-1022.6398C236.4091,-1014.8324 452.1692,-994.4164 632,-972 665.6747,-967.8024 704.3543,-962.0365 729.4343,-958.1724"/>
<polygon fill="#000000" stroke="#000000" points="150.647,-1019.1765 141.0068,-1023.5716 151.2837,-1026.1475 150.647,-1019.1765"/>
</g>
<!-- R&#45;&gt;B -->
<g id="edge75" class="edge">
<title>R&#45;&gt;B</title>
<path fill="none" stroke="#000000" d="M151.4285,-1023.4019C220.1799,-1018.0321 370.8246,-1003.4819 494,-972 736.6282,-909.9876 1015.0075,-785.2377 1094.6664,-748.4421"/>
<polygon fill="#000000" stroke="#000000" points="150.8201,-1019.938 141.1142,-1024.1861 151.3508,-1026.9178 150.8201,-1019.938"/>
</g>
<!-- R&#45;&gt;O -->
<g id="edge94" class="edge">
<title>R&#45;&gt;O</title>
<path fill="none" stroke="#000000" d="M85.5729,-1007.6223C51.808,-983.3053 0,-937.0281 0,-882 0,-882 0,-882 0,-162 0,-89.0457 569.8858,-32.4616 701.2267,-20.3895"/>
<polygon fill="#000000" stroke="#000000" points="83.9398,-1010.7507 94.1427,-1013.6058 87.9472,-1005.0112 83.9398,-1010.7507"/>
</g>
<!-- R&#45;&gt;D -->
<g id="edge46" class="edge">
<title>R&#45;&gt;D</title>
<path fill="none" stroke="#000000" d="M102.5585,-999.3788C91.3687,-970.8878 76,-924.0945 76,-882 76,-882 76,-882 76,-522 76,-337.9565 193.7113,-304.6451 355,-216 403.5273,-189.3291 570.2972,-170.8744 636.0453,-164.4776"/>
<polygon fill="#000000" stroke="#000000" points="99.3162,-1000.6971 106.3101,-1008.6554 105.8056,-998.0726 99.3162,-1000.6971"/>
</g>
<!-- R&#45;&gt;K -->
<g id="edge40" class="edge">
<title>R&#45;&gt;K</title>
<path fill="none" stroke="#000000" d="M151.5125,-1023.9875C212.839,-1019.767 337.68,-1007.2549 437,-972 600.9559,-913.8017 775.215,-792.048 830.8431,-751.478"/>
<polygon fill="#000000" stroke="#000000" points="150.9236,-1020.5184 141.1723,-1024.6612 151.3787,-1027.5036 150.9236,-1020.5184"/>
</g>
<!-- S&#45;&gt;O -->
<g id="edge25" class="edge">
<title>S&#45;&gt;O</title>
<path fill="none" stroke="#000000" d="M758.6127,-64.8961C752.0652,-54.8659 744.7044,-43.5897 738.8418,-34.6087"/>
<polygon fill="#000000" stroke="#000000" points="755.702,-66.8402 764.0991,-73.3008 761.5637,-63.0138 755.702,-66.8402"/>
</g>
<!-- F&#45;&gt;A -->
<g id="edge57" class="edge">
<title>F&#45;&gt;A</title>
<path fill="none" stroke="#000000" d="M1166.7751,-998.2591C1164.5883,-989.8289 1162.1871,-980.5376 1160,-972 1146.609,-919.7261 1131.0332,-857.894 1123.5164,-827.988"/>
<polygon fill="#000000" stroke="#000000" points="1163.4053,-999.208 1169.3073,-1008.0067 1170.1804,-997.4479 1163.4053,-999.208"/>
</g>
<!-- F&#45;&gt;S -->
<g id="edge48" class="edge">
<title>F&#45;&gt;S</title>
<path fill="none" stroke="#000000" d="M1211.1349,-1022.9222C1284.2869,-1014.6164 1440,-984.8563 1440,-882 1440,-882 1440,-882 1440,-306 1440,-191.9543 1346.0735,-188.3394 1241,-144 1160.7106,-110.1192 889.0182,-95.1481 802.0302,-91.1477"/>
<polygon fill="#000000" stroke="#000000" points="1210.5454,-1019.465 1200.9693,-1023.9982 1211.2822,-1026.4261 1210.5454,-1019.465"/>
</g>
<!-- F&#45;&gt;V -->
<g id="edge7" class="edge">
<title>F&#45;&gt;V</title>
<path fill="none" stroke="#000000" d="M1137.7555,-1019.1247C1119.5384,-1015.7071 1097.114,-1011.5578 1077,-1008 967.6509,-988.658 837.0442,-967.1935 782.2395,-958.2607"/>
<polygon fill="#000000" stroke="#000000" points="1137.1984,-1022.5812 1147.6732,-1020.9909 1138.4929,-1015.7019 1137.1984,-1022.5812"/>
</g>
<!-- F&#45;&gt;B -->
<g id="edge86" class="edge">
<title>F&#45;&gt;B</title>
<path fill="none" stroke="#000000" d="M1176.3771,-997.8407C1179.1617,-952.8513 1180.5546,-862.6396 1155,-792 1149.8523,-777.7705 1139.9102,-763.8583 1131.4865,-753.7193"/>
<polygon fill="#000000" stroke="#000000" points="1172.8721,-997.793 1175.6742,-1008.0105 1179.8555,-998.2757 1172.8721,-997.793"/>
</g>
<!-- F&#45;&gt;O -->
<g id="edge97" class="edge">
<title>F&#45;&gt;O</title>
<path fill="none" stroke="#000000" d="M1210.7005,-1021.3567C1270.4643,-1013.235 1385.5132,-995.0935 1419,-972 1458.3738,-944.8466 1478,-929.8289 1478,-882 1478,-882 1478,-882 1478,-162 1478,-45.1618 1344.8096,-98.4298 1231,-72 1052.625,-30.5763 831.1492,-20.8079 755.1019,-18.609"/>
<polygon fill="#000000" stroke="#000000" points="1210.012,-1017.9175 1200.5632,-1022.7102 1210.9384,-1024.8559 1210.012,-1017.9175"/>
</g>
<!-- F&#45;&gt;Y -->
<g id="edge78" class="edge">
<title>F&#45;&gt;Y</title>
<path fill="none" stroke="#000000" d="M1208.7641,-1015.1624C1229.0578,-1006.8425 1252.9698,-993.1277 1265,-972 1272.917,-958.096 1268.7904,-951.5445 1265,-936 1239.3819,-830.9403 1226.3828,-799.4279 1153,-720 1058.6228,-617.8481 899.3412,-552.5508 839.0747,-530.4129"/>
<polygon fill="#000000" stroke="#000000" points="1207.2585,-1011.9906 1199.1604,-1018.8222 1209.7512,-1018.5317 1207.2585,-1011.9906"/>
</g>
<!-- V&#45;&gt;S -->
<g id="edge9" class="edge">
<title>V&#45;&gt;S</title>
<path fill="none" stroke="#000000" d="M756,-925.5823C756,-896.5369 756,-850.124 756,-810 756,-810 756,-810 756,-666 756,-513.6262 737.3366,-476.2803 732,-324 730.3131,-275.8632 733.731,-263.6147 741,-216 745.9073,-183.855 745.1775,-175.2977 754,-144 757.4933,-131.6075 762.7433,-118.1075 767.12,-107.7056"/>
<polygon fill="#000000" stroke="#000000" points="752.5001,-925.8146 756,-935.8146 759.5001,-925.8147 752.5001,-925.8146"/>
</g>
<!-- V&#45;&gt;H -->
<g id="edge33" class="edge">
<title>V&#45;&gt;H</title>
<path fill="none" stroke="#000000" d="M733.4139,-931.8677C681.9935,-881.5285 557.3093,-759.7497 514,-720 498.9617,-706.1977 481.3783,-690.9657 468.7856,-680.208"/>
<polygon fill="#000000" stroke="#000000" points="731.139,-934.5387 740.7327,-939.0346 736.0366,-929.5373 731.139,-934.5387"/>
</g>
<!-- V&#45;&gt;I -->
<g id="edge41" class="edge">
<title>V&#45;&gt;I</title>
<path fill="none" stroke="#000000" d="M790.6599,-943.9779C841.5309,-929.2682 935.2111,-902.1799 979.9453,-889.2447"/>
<polygon fill="#000000" stroke="#000000" points="789.4196,-940.693 780.7854,-946.8331 791.3641,-947.4176 789.4196,-940.693"/>
</g>
<!-- C&#45;&gt;H -->
<g id="edge8" class="edge">
<title>C&#45;&gt;H</title>
<path fill="none" stroke="#000000" d="M532.1778,-785.0268C512.4414,-755.7274 480.2644,-707.9595 463.2961,-682.7695"/>
<polygon fill="#000000" stroke="#000000" points="529.3832,-787.1429 537.8729,-793.4814 535.1889,-783.2321 529.3832,-787.1429"/>
</g>
<!-- C&#45;&gt;K -->
<g id="edge90" class="edge">
<title>C&#45;&gt;K</title>
<path fill="none" stroke="#000000" d="M584.559,-801.4658C645.8526,-786.7554 769.965,-756.9684 823.4869,-744.1231"/>
<polygon fill="#000000" stroke="#000000" points="583.4849,-798.1242 574.5778,-803.8613 585.1185,-804.9309 583.4849,-798.1242"/>
</g>
<!-- C&#45;&gt;X -->
<g id="edge55" class="edge">
<title>C&#45;&gt;X</title>
<path fill="none" stroke="#000000" d="M520.5284,-791.7141C489.3573,-770.0359 440.5491,-730.8743 416,-684 403.9975,-661.0824 399.5771,-631.1292 397.9491,-612.2223"/>
<polygon fill="#000000" stroke="#000000" points="518.5817,-794.6229 528.8178,-797.3568 522.5207,-788.8363 518.5817,-794.6229"/>
</g>
<!-- H&#45;&gt;W -->
<g id="edge29" class="edge">
<title>H&#45;&gt;W</title>
<path fill="none" stroke="#000000" d="M452.8588,-637.6727C454.0342,-596.3986 456,-517.3101 456,-450 456,-450 456,-450 456,-378 456,-329.0265 484.1051,-276.4856 500.1338,-250.5031"/>
<polygon fill="#000000" stroke="#000000" points="449.3567,-637.6989 452.5646,-647.7964 456.3537,-637.9024 449.3567,-637.6989"/>
</g>
<!-- H&#45;&gt;S -->
<g id="edge47" class="edge">
<title>H&#45;&gt;S</title>
<path fill="none" stroke="#000000" d="M419.0353,-652.9689C398.4394,-643.6984 372.2664,-629.7509 353,-612 233.3321,-501.7455 152,-468.7158 152,-306 152,-306 152,-306 152,-234 152,-109.806 627.9203,-92.7049 747.8299,-90.3672"/>
<polygon fill="#000000" stroke="#000000" points="417.785,-656.2418 428.3514,-657.018 420.5754,-649.8219 417.785,-656.2418"/>
</g>
<!-- H&#45;&gt;D -->
<g id="edge15" class="edge">
<title>H&#45;&gt;D</title>
<path fill="none" stroke="#000000" d="M417.2359,-655.1624C396.9422,-646.8425 373.0302,-633.1277 361,-612 353.083,-598.096 359.8038,-591.9552 361,-576 365.2341,-519.5254 380,-506.6331 380,-450 380,-450 380,-450 380,-306 380,-191.8878 565.0322,-168.1658 635.8648,-163.2654"/>
<polygon fill="#000000" stroke="#000000" points="416.2488,-658.5317 426.8396,-658.8222 418.7415,-651.9906 416.2488,-658.5317"/>
</g>
<!-- H&#45;&gt;Y -->
<g id="edge38" class="edge">
<title>H&#45;&gt;Y</title>
<path fill="none" stroke="#000000" d="M484.777,-652.9976C557.0533,-624.326 728.6737,-556.2452 791.4644,-531.3364"/>
<polygon fill="#000000" stroke="#000000" points="483.2642,-649.8323 475.2595,-656.7731 485.8454,-656.339 483.2642,-649.8323"/>
</g>
<!-- J&#45;&gt;A -->
<g id="edge36" class="edge">
<title>J&#45;&gt;A</title>
<path fill="none" stroke="#000000" d="M1009.0049,-932.2171C1019.0186,-922.5315 1030.7767,-910.8791 1041,-900 1064.646,-874.8372 1090.6345,-844.2042 1105.8466,-825.9461"/>
<polygon fill="#000000" stroke="#000000" points="1006.5282,-929.743 1001.7418,-939.195 1011.3779,-934.7909 1006.5282,-929.743"/>
</g>
<!-- J&#45;&gt;H -->
<g id="edge31" class="edge">
<title>J&#45;&gt;H</title>
<path fill="none" stroke="#000000" d="M952.926,-941.469C899.2802,-920.6524 790.5772,-876.416 704,-828 629.7603,-786.4835 618.044,-765.2197 546,-720 521.4513,-704.5916 492.4213,-688.18 473.1852,-677.5482"/>
<polygon fill="#000000" stroke="#000000" points="951.6948,-944.7454 962.2844,-945.0791 954.2142,-938.2145 951.6948,-944.7454"/>
</g>
<!-- J&#45;&gt;I -->
<g id="edge10" class="edge">
<title>J&#45;&gt;I</title>
<path fill="none" stroke="#000000" d="M993.3218,-926.2542C995.6622,-917.3854 998.189,-907.8102 1000.2916,-899.8425"/>
<polygon fill="#000000" stroke="#000000" points="989.8641,-925.6402 990.6966,-936.2022 996.6324,-927.4263 989.8641,-925.6402"/>
</g>
<!-- J&#45;&gt;G -->
<g id="edge43" class="edge">
<title>J&#45;&gt;G</title>
<path fill="none" stroke="#000000" d="M975.6103,-926.6363C972.8995,-918.2189 970.3586,-908.8402 969,-900 966.5695,-884.1857 967.6188,-879.9403 969,-864 980.1775,-734.9981 1033.3141,-703.8818 1013,-576 997.3373,-477.3999 951.3914,-365.8477 932.8715,-323.5287"/>
<polygon fill="#000000" stroke="#000000" points="972.3786,-928.0021 978.9333,-936.326 979,-925.7313 972.3786,-928.0021"/>
</g>
<!-- I&#45;&gt;P -->
<g id="edge30" class="edge">
<title>I&#45;&gt;P</title>
<path fill="none" stroke="#000000" d="M973.7466,-866.6719C953.4751,-856.3955 926.7079,-842.1912 904,-828 823.8225,-777.8933 734.3952,-708.9711 697.4335,-679.8637"/>
<polygon fill="#000000" stroke="#000000" points="972.34,-869.8821 982.8471,-871.2431 975.4821,-863.6268 972.34,-869.8821"/>
</g>
<!-- I&#45;&gt;A -->
<g id="edge96" class="edge">
<title>I&#45;&gt;A</title>
<path fill="none" stroke="#000000" d="M1033.4877,-864.0078C1054.027,-851.0356 1081.2187,-833.8619 1099.3703,-822.3977"/>
<polygon fill="#000000" stroke="#000000" points="1031.4432,-861.1594 1024.8573,-869.4586 1035.1812,-867.0778 1031.4432,-861.1594"/>
</g>
<!-- I&#45;&gt;S -->
<g id="edge11" class="edge">
<title>I&#45;&gt;S</title>
<path fill="none" stroke="#000000" d="M1015.9687,-854.9997C1023.3701,-837.0406 1033.4871,-812.9844 1043,-792 1056.7675,-761.6303 1174,-555.3446 1174,-522 1174,-522 1174,-522 1174,-234 1174,-154.5565 890.6034,-106.7403 801.4885,-93.6682"/>
<polygon fill="#000000" stroke="#000000" points="1012.7142,-853.7114 1012.1573,-864.2915 1019.1905,-856.3679 1012.7142,-853.7114"/>
</g>
<!-- I&#45;&gt;B -->
<g id="edge61" class="edge">
<title>I&#45;&gt;B</title>
<path fill="none" stroke="#000000" d="M1023.9287,-857.6631C1046.7815,-828.2809 1084.5886,-779.6718 1104.2442,-754.4003"/>
<polygon fill="#000000" stroke="#000000" points="1021.0068,-855.7189 1017.6301,-865.7613 1026.5323,-860.0165 1021.0068,-855.7189"/>
</g>
<!-- I&#45;&gt;K -->
<g id="edge32" class="edge">
<title>I&#45;&gt;K</title>
<path fill="none" stroke="#000000" d="M981.5752,-860.3771C949.4176,-830.6931 892.452,-778.1095 864.8585,-752.6386"/>
<polygon fill="#000000" stroke="#000000" points="979.4613,-863.189 989.1834,-867.4001 984.2093,-858.0454 979.4613,-863.189"/>
</g>
<!-- I&#45;&gt;X -->
<g id="edge80" class="edge">
<title>I&#45;&gt;X</title>
<path fill="none" stroke="#000000" d="M970.1529,-871.9567C937.3439,-862.1006 887.0918,-845.9661 845,-828 674.3105,-755.1445 479.8719,-642.9523 417.4317,-606.1494"/>
<polygon fill="#000000" stroke="#000000" points="969.577,-875.4368 980.1598,-874.9305 971.5711,-868.7268 969.577,-875.4368"/>
</g>
<!-- I&#45;&gt;U -->
<g id="edge82" class="edge">
<title>I&#45;&gt;U</title>
<path fill="none" stroke="#000000" d="M1005.3592,-853.82C1006.0365,-835.948 1007.7596,-812.4281 1012,-792 1029.197,-709.1533 1053.8796,-694.1856 1074,-612 1093.3892,-532.8012 1103.7531,-435.7344 1107.4305,-396.1258"/>
<polygon fill="#000000" stroke="#000000" points="1001.8589,-853.7832 1005.0648,-863.8814 1008.8559,-853.988 1001.8589,-853.7832"/>
</g>
<!-- B&#45;&gt;O -->
<g id="edge14" class="edge">
<title>B&#45;&gt;O</title>
<path fill="none" stroke="#000000" d="M1141.9524,-717.4108C1170.0993,-691.7184 1212,-644.9202 1212,-594 1212,-594 1212,-594 1212,-522 1212,-353.6617 1294.2975,-274.5321 1188,-144 1131.6618,-74.8174 844.2081,-32.8238 754.666,-21.2683"/>
<polygon fill="#000000" stroke="#000000" points="1139.5862,-714.8312 1134.4245,-724.0836 1144.2295,-720.0695 1139.5862,-714.8312"/>
</g>
<!-- B&#45;&gt;Y -->
<g id="edge64" class="edge">
<title>B&#45;&gt;Y</title>
<path fill="none" stroke="#000000" d="M1088.9298,-719.6124C1052.3764,-695.5022 986.6913,-651.6093 932,-612 896.0932,-585.9951 855.2851,-554.0362 832.598,-536.0465"/>
<polygon fill="#000000" stroke="#000000" points="1087.2939,-722.7257 1097.5709,-725.3012 1091.1431,-716.879 1087.2939,-722.7257"/>
</g>
<!-- D&#45;&gt;S -->
<g id="edge27" class="edge">
<title>D&#45;&gt;S</title>
<path fill="none" stroke="#000000" d="M690.9333,-144.0429C710.9775,-131.1573 737.4916,-114.1125 755.3389,-102.6393"/>
<polygon fill="#000000" stroke="#000000" points="689.028,-141.1068 682.5089,-149.4586 692.8134,-146.9951 689.028,-141.1068"/>
</g>
<!-- D&#45;&gt;O -->
<g id="edge24" class="edge">
<title>D&#45;&gt;O</title>
<path fill="none" stroke="#000000" d="M674.9873,-135.4434C688.1457,-106.2927 708.8915,-60.3326 720.1317,-35.4314"/>
<polygon fill="#000000" stroke="#000000" points="671.7647,-134.0758 670.8405,-144.6302 678.1448,-136.9557 671.7647,-134.0758"/>
</g>
<!-- K&#45;&gt;P -->
<g id="edge51" class="edge">
<title>K&#45;&gt;P</title>
<path fill="none" stroke="#000000" d="M817.2356,-724.0006C814.1175,-722.6426 810.999,-721.2908 808,-720 771.4462,-704.2664 728.8387,-686.3817 703.1663,-675.6548"/>
<polygon fill="#000000" stroke="#000000" points="815.9042,-727.2383 826.4688,-728.0384 818.709,-720.8248 815.9042,-727.2383"/>
</g>
<!-- K&#45;&gt;E -->
<g id="edge16" class="edge">
<title>K&#45;&gt;E</title>
<path fill="none" stroke="#000000" d="M852.898,-709.9345C861.0571,-651.1886 879.7373,-516.6912 886.4988,-468.0089"/>
<polygon fill="#000000" stroke="#000000" points="849.4112,-709.5979 851.5022,-719.9843 856.3447,-710.5609 849.4112,-709.5979"/>
</g>
<!-- K&#45;&gt;D -->
<g id="edge53" class="edge">
<title>K&#45;&gt;D</title>
<path fill="none" stroke="#000000" d="M854.1089,-709.8712C861.1365,-665.2734 870.8105,-576.0132 851,-504 816.4284,-378.3288 759.8213,-368.3121 701,-252 688.6002,-227.4808 676.6767,-197.9531 669.5922,-179.5745"/>
<polygon fill="#000000" stroke="#000000" points="850.6195,-709.5204 852.4426,-719.9572 857.5259,-710.6615 850.6195,-709.5204"/>
</g>
<!-- K&#45;&gt;Y -->
<g id="edge68" class="edge">
<title>K&#45;&gt;Y</title>
<path fill="none" stroke="#000000" d="M844.5919,-709.9956C837.5106,-665.0083 823.795,-577.8741 817.8562,-540.1451"/>
<polygon fill="#000000" stroke="#000000" points="841.1472,-710.6214 846.1597,-719.9555 848.0621,-709.5329 841.1472,-710.6214"/>
</g>
<!-- G&#45;&gt;W -->
<g id="edge22" class="edge">
<title>G&#45;&gt;W</title>
<path fill="none" stroke="#000000" d="M888.6976,-299.6865C806.727,-285.4308 608.8911,-251.0245 537.3637,-238.585"/>
<polygon fill="#000000" stroke="#000000" points="888.3365,-303.1762 898.7884,-301.4415 889.536,-296.2797 888.3365,-303.1762"/>
</g>
<!-- G&#45;&gt;S -->
<g id="edge63" class="edge">
<title>G&#45;&gt;S</title>
<path fill="none" stroke="#000000" d="M924.7861,-277.7743C923.0995,-242.7363 915.386,-182.8637 884,-144 862.7703,-117.7123 825.4996,-103.1905 800.532,-95.9958"/>
<polygon fill="#000000" stroke="#000000" points="921.2892,-277.9282 925.1355,-287.8002 928.285,-277.6843 921.2892,-277.9282"/>
</g>
<!-- G&#45;&gt;D -->
<g id="edge42" class="edge">
<title>G&#45;&gt;D</title>
<path fill="none" stroke="#000000" d="M895.7036,-288.2997C864.7516,-269.7623 814.3775,-240.055 770,-216 740.9136,-200.2336 706.6819,-183.2211 684.9167,-172.5924"/>
<polygon fill="#000000" stroke="#000000" points="894.2826,-291.5289 904.6577,-293.6755 897.8857,-285.5274 894.2826,-291.5289"/>
</g>
<!-- X&#45;&gt;W -->
<g id="edge18" class="edge">
<title>X&#45;&gt;W</title>
<path fill="none" stroke="#000000" d="M403.5061,-566.1405C409.673,-537.2616 418,-490.7271 418,-450 418,-450 418,-450 418,-378 418,-336.6022 419.1859,-322.5441 442,-288 454.0715,-269.7219 474.3946,-254.9207 489.8668,-245.4682"/>
<polygon fill="#000000" stroke="#000000" points="400.0811,-565.4194 401.3512,-575.9379 406.9177,-566.9232 400.0811,-565.4194"/>
</g>
<!-- X&#45;&gt;S -->
<g id="edge71" class="edge">
<title>X&#45;&gt;S</title>
<path fill="none" stroke="#000000" d="M374.5788,-571.7494C314.648,-509.5973 161.2832,-331.1676 252,-216 314.9934,-136.028 649.9592,-100.8883 748.0141,-92.2183"/>
<polygon fill="#000000" stroke="#000000" points="372.2386,-574.3627 381.7293,-579.072 377.2469,-569.4721 372.2386,-574.3627"/>
</g>
<!-- X&#45;&gt;Y -->
<g id="edge26" class="edge">
<title>X&#45;&gt;Y</title>
<path fill="none" stroke="#000000" d="M432.4478,-585.3985C446.0282,-582.2413 461.6927,-578.7663 476,-576 591.8547,-553.5994 731.2883,-533.5466 788.5223,-525.61"/>
<polygon fill="#000000" stroke="#000000" points="431.4582,-582.0357 422.5261,-587.7338 433.062,-588.8495 431.4582,-582.0357"/>
</g>
<!-- Y&#45;&gt;E -->
<g id="edge39" class="edge">
<title>Y&#45;&gt;E</title>
<path fill="none" stroke="#000000" d="M837.6274,-499.9842C849.3171,-488.6104 863.2731,-475.0316 873.6868,-464.8993"/>
<polygon fill="#000000" stroke="#000000" points="835.0594,-497.5994 830.3328,-507.0816 839.9409,-502.6165 835.0594,-497.5994"/>
</g>
<!-- Y&#45;&gt;U -->
<g id="edge19" class="edge">
<title>Y&#45;&gt;U</title>
<path fill="none" stroke="#000000" d="M846.4328,-506.6043C906.3327,-477.2656 1035.4533,-414.0229 1087.0468,-388.7526"/>
<polygon fill="#000000" stroke="#000000" points="844.5389,-503.6346 837.0978,-511.1766 847.618,-509.9211 844.5389,-503.6346"/>
</g>
<!-- U&#45;&gt;W -->
<g id="edge35" class="edge">
<title>U&#45;&gt;W</title>
<path fill="none" stroke="#000000" d="M1083.4712,-357.7402C1055.2591,-336.532 1007.6199,-304.1194 961,-288 881.8005,-260.6158 622.8697,-241.4177 538.1197,-235.741"/>
<polygon fill="#000000" stroke="#000000" points="1081.5083,-360.645 1091.5804,-363.9319 1085.7564,-355.0814 1081.5083,-360.645"/>
</g>
<!-- U&#45;&gt;S -->
<g id="edge81" class="edge">
<title>U&#45;&gt;S</title>
<path fill="none" stroke="#000000" d="M1093.5378,-352.3891C1063.4625,-304.657 992.4814,-201.7187 907,-144 873.0389,-121.0688 827.8201,-105.2181 800.0932,-96.8769"/>
<polygon fill="#000000" stroke="#000000" points="1090.7457,-354.527 1098.9996,-361.1696 1096.6896,-350.8297 1090.7457,-354.527"/>
</g>
<!-- U&#45;&gt;D -->
<g id="edge21" class="edge">
<title>U&#45;&gt;D</title>
<path fill="none" stroke="#000000" d="M1088.7363,-354.8308C1070.1967,-334.829 1041.1389,-306.3391 1011,-288 900.668,-220.8646 749.06,-181.4775 689.0087,-167.6522"/>
<polygon fill="#000000" stroke="#000000" points="1086.2206,-357.2664 1095.5413,-362.3038 1091.3963,-352.5534 1086.2206,-357.2664"/>
</g>
<!-- U&#45;&gt;G -->
<g id="edge66" class="edge">
<title>U&#45;&gt;G</title>
<path fill="none" stroke="#000000" d="M1077.2861,-363.8802C1074.1578,-362.5466 1071.0231,-361.2334 1068,-360 1026.4747,-343.058 977.4555,-324.9512 948.9336,-314.6009"/>
<polygon fill="#000000" stroke="#000000" points="1075.9665,-367.1227 1086.534,-367.8828 1078.747,-360.6986 1075.9665,-367.1227"/>
</g>
</g>
</svg>
